<svg width="1440" height="685" viewBox="0 0 1440 685" fill="none" xmlns="http://www.w3.org/2000/svg">
<path fill-rule="evenodd" clip-rule="evenodd" d="M-25.8847 598.4L30.3172 619.825C86.0424 639.655 198.446 682.504 287.203 642.075C375.294 603.583 439.071 483.748 516.674 410.167C595.896 337.84 687.324 310.512 788.763 316.678C890.679 324.438 1002.61 365.693 1088.5 315.694C1172.78 264.442 1229.88 122.279 1317.97 83.7865C1407.21 44.9524 1525.81 108.536 1585.35 141.125L1644.89 173.714L1768.84 588.397L1723.12 602.061C1677.41 615.725 1585.98 643.053 1493.41 670.723C1401.98 698.051 1310.55 725.378 1219.13 752.706C1126.56 780.376 1035.13 807.704 943.7 835.032C852.272 862.359 760.844 889.687 668.274 917.357C576.846 944.685 485.418 972.013 393.99 999.341C301.42 1027.01 209.992 1054.34 164.278 1068L118.564 1081.67L-25.8847 598.4Z" fill="#FD9148"/>
<path d="M1316.08 93.4103C1464.76 86.9974 1485.73 196.736 1485.73 196.736L1616.42 633.955L-26.4392 1125.01L-150.935 708.496C-150.935 708.496 51.9668 769.013 159.573 681.423C267.178 593.833 329.47 564.902 432.291 534.169C535.113 503.435 599.991 549.781 669.352 463.311C738.712 376.841 748.22 383.666 860.112 335.398C972.005 287.13 1083.14 284.203 1083.14 284.203C1083.14 284.203 1167.41 99.8232 1316.08 93.4103Z" fill="#FFAD75"/>
<path d="M1589.5 642L1484.32 290.108C1484.32 290.108 1350.2 271.489 1223.72 473.909C1097.23 676.329 951.931 555.146 799.725 535.601C647.519 516.056 590.798 644.671 481.955 718.07C373.113 791.469 150.969 711.097 93.4559 773.758C55.4385 815.178 46.1187 824.883 44.1687 826.703L44.1069 826.496C44.1069 826.496 43.1688 827.636 44.1687 826.703L120.229 1081.17L1589.5 642Z" fill="#FFCAA7"/>
<path d="M1346.03 539.8C1472.18 413.226 1719.07 446.896 1719.07 446.896L1761.98 590.447L524.865 960.222L487.25 834.378C487.25 834.378 508.255 714.434 687.828 774.425C867.401 834.415 927.543 683.485 1005.61 587.818C1083.68 492.15 1219.87 666.375 1346.03 539.8Z" fill="#CB7D48"/>
</svg>
